<?xml version="1.0" standalone="no"?>
<!DOCTYPE svg PUBLIC "-//W3C//DTD SVG 20010904//EN"
 "http://www.w3.org/TR/2001/REC-SVG-20010904/DTD/svg10.dtd">
<svg version="1.0" xmlns="http://www.w3.org/2000/svg"
 width="1233.000000pt" height="1371.000000pt" viewBox="0 0 1233.000000 1371.000000"
 preserveAspectRatio="xMidYMid meet">

<g transform="translate(0.000000,1371.000000) scale(0.100000,-0.100000)"
fill="#000000" stroke="none">
<path d="M5895 13639 c-107 -16 -238 -48 -325 -80 -47 -17 -99 -35 -116 -40
-18 -5 -37 -16 -44 -24 -7 -8 -19 -15 -27 -15 -8 0 -41 -18 -73 -40 -32 -22
-62 -40 -66 -40 -16 0 -133 -107 -136 -125 -1 -11 -12 -21 -22 -23 -22 -5
-136 -114 -136 -132 0 -6 -7 -13 -15 -16 -18 -7 -105 -123 -105 -140 0 -7 -6
-17 -12 -21 -7 -4 -26 -35 -42 -68 -16 -33 -33 -67 -37 -75 -12 -23 -70 -143
-79 -165 -23 -54 -59 -224 -78 -377 -7 -48 -3 -144 11 -323 1 -22 5 -45 9 -50
3 -6 9 -31 12 -57 4 -26 11 -50 16 -53 5 -3 12 -26 16 -52 8 -55 41 -135 60
-146 8 -4 14 -20 14 -36 0 -15 11 -42 25 -61 14 -19 25 -39 25 -46 0 -6 7 -14
15 -18 8 -3 15 -14 15 -25 0 -22 37 -84 69 -117 12 -12 21 -24 21 -27 0 -3 14
-26 30 -50 31 -46 37 -67 20 -67 -5 0 -10 -12 -10 -27 0 -26 -7 -42 -38 -98
-29 -52 -82 -173 -82 -187 0 -8 -9 -27 -20 -41 -11 -14 -20 -28 -20 -32 0 -3
-9 -25 -19 -48 -11 -23 -23 -60 -27 -82 -4 -22 -15 -53 -26 -70 -10 -16 -18
-38 -18 -47 0 -17 -12 -47 -51 -134 -11 -23 -19 -51 -19 -63 0 -12 -8 -43 -19
-69 -16 -40 -36 -104 -81 -257 -5 -16 -12 -50 -16 -75 -4 -25 -13 -52 -21 -61
-7 -9 -16 -40 -19 -70 -3 -30 -12 -67 -19 -84 -7 -16 -21 -65 -30 -107 -9 -42
-24 -83 -33 -91 -11 -10 -57 -19 -132 -26 -119 -11 -186 -31 -314 -89 -38 -18
-72 -32 -75 -32 -11 0 -125 -89 -133 -105 -5 -8 -15 -15 -22 -15 -18 0 -115
-97 -126 -126 -5 -13 -15 -24 -22 -24 -7 0 -21 -17 -31 -38 -9 -20 -29 -55
-42 -77 -14 -22 -27 -47 -31 -55 -3 -8 -12 -27 -20 -42 -8 -14 -14 -39 -14
-54 0 -15 -7 -35 -16 -45 -52 -58 -51 -458 2 -534 8 -11 14 -29 14 -41 0 -28
90 -209 129 -259 17 -22 39 -51 49 -63 9 -13 37 -43 62 -65 24 -23 54 -52 66
-64 12 -13 27 -23 33 -23 7 0 26 -13 43 -30 16 -16 36 -30 43 -30 14 0 71 -29
110 -56 11 -8 30 -14 42 -14 13 0 31 -4 41 -9 9 -5 43 -19 75 -31 52 -21 70
-22 210 -18 144 5 276 26 301 49 6 5 19 9 29 9 11 0 51 16 91 36 39 20 81 41
94 47 13 6 28 19 33 29 5 10 16 18 24 18 16 0 98 71 150 129 16 19 41 46 55
60 38 39 90 119 90 140 0 10 9 29 19 43 11 14 25 47 32 74 6 27 16 54 20 59 4
6 11 31 15 55 4 25 11 50 16 57 6 7 10 79 11 160 1 155 -12 241 -45 301 -10
18 -18 40 -18 48 0 39 -99 204 -137 229 -12 9 -23 22 -23 30 0 20 -105 125
-126 125 -9 0 -18 8 -21 18 -4 16 -63 63 -108 87 -11 6 -60 28 -110 50 -49 21
-98 47 -107 58 -22 23 -23 55 -3 81 8 11 15 32 15 48 0 15 7 48 16 74 8 25 19
67 24 93 4 25 13 60 18 76 29 82 55 165 66 215 7 30 18 68 24 83 7 16 12 38
12 49 0 12 6 29 13 37 8 9 19 36 26 61 13 45 25 76 62 158 10 23 19 49 19 57
0 8 7 31 16 52 38 88 47 109 55 125 5 10 9 25 9 34 0 9 11 29 25 46 13 16 31
52 40 80 8 28 19 56 25 63 5 6 13 29 18 51 l8 39 62 3 c57 3 63 1 71 -20 10
-26 170 -120 278 -163 37 -15 73 -31 78 -35 6 -4 24 -10 40 -13 63 -12 91 -19
110 -27 11 -5 34 -11 50 -14 17 -2 53 -10 80 -16 145 -32 512 -2 617 51 10 5
28 9 40 9 13 0 34 9 48 20 14 11 39 20 56 20 18 0 38 8 49 20 10 11 26 20 37
20 10 0 35 10 56 23 20 12 48 28 62 35 14 7 45 28 70 47 25 19 52 38 60 42 37
17 290 268 290 287 0 7 7 19 16 27 8 7 31 38 51 68 20 31 49 75 64 98 16 23
29 47 29 54 0 7 8 22 19 33 32 35 100 254 121 386 17 111 9 464 -14 560 -9 41
-24 85 -32 97 -8 12 -14 31 -14 42 0 11 -4 22 -9 25 -5 3 -11 18 -14 33 -8 41
-31 100 -48 120 -8 10 -23 34 -32 53 -31 61 -52 95 -64 103 -7 4 -13 17 -13
27 0 10 -9 25 -20 33 -11 8 -35 36 -53 63 -40 62 -217 239 -282 284 -28 18
-62 44 -77 56 -15 12 -53 35 -85 50 -32 15 -70 36 -85 46 -14 10 -33 18 -41
18 -8 0 -28 7 -43 15 -16 8 -46 18 -67 22 -21 3 -41 12 -44 19 -3 8 -16 14
-28 14 -27 0 -121 19 -150 30 -68 26 -308 37 -430 19z"/>
<path d="M3170 12269 c-19 -6 -46 -19 -61 -30 -15 -10 -36 -19 -48 -19 -11 0
-28 -11 -36 -24 -9 -14 -29 -29 -45 -35 -19 -6 -32 -19 -36 -36 -4 -15 -17
-30 -30 -36 -16 -5 -27 -19 -30 -39 -4 -16 -13 -35 -20 -41 -8 -6 -14 -18 -14
-26 0 -8 -6 -27 -14 -41 -27 -53 -36 -100 -36 -187 0 -101 25 -185 74 -250 35
-46 86 -95 98 -95 5 0 7 -4 4 -8 -3 -5 7 -15 22 -23 15 -7 43 -26 62 -41 19
-16 42 -28 52 -28 9 0 19 -4 22 -9 10 -16 147 -34 218 -29 38 3 78 12 92 22
14 9 38 16 53 16 43 0 183 125 183 162 0 10 10 24 23 33 27 17 49 67 67 150 7
33 17 64 22 70 4 5 8 40 8 79 0 61 -5 79 -42 157 -25 50 -51 90 -60 92 -10 3
-18 12 -18 21 0 16 -62 86 -77 86 -4 1 -24 14 -43 30 -19 17 -39 30 -45 30 -6
0 -36 12 -66 28 -46 23 -68 27 -149 29 -52 1 -111 -3 -130 -8z"/>
<path d="M8895 12266 c-16 -6 -45 -19 -64 -29 -19 -9 -39 -17 -46 -17 -6 0
-24 -13 -40 -30 -16 -16 -37 -30 -47 -30 -10 0 -18 -4 -18 -9 0 -5 -16 -27
-36 -48 -70 -74 -109 -178 -120 -318 -5 -62 -3 -89 10 -119 9 -21 16 -49 16
-62 0 -13 5 -24 10 -24 6 0 15 -11 19 -24 9 -23 68 -116 93 -147 17 -20 104
-79 117 -79 5 0 35 -14 67 -31 56 -31 58 -31 173 -27 95 4 123 9 156 26 22 12
48 22 57 22 10 0 18 4 18 9 0 5 20 22 44 37 25 16 54 45 66 66 12 21 25 38 29
38 8 0 75 132 101 197 8 22 11 65 8 125 -3 78 -9 103 -33 153 -17 33 -33 62
-38 63 -4 2 -14 20 -22 39 -17 41 -146 173 -169 173 -8 0 -31 9 -51 20 -20 11
-44 20 -55 20 -10 0 -22 5 -25 10 -8 14 -182 11 -220 -4z"/>
<path d="M10495 11043 c-44 -8 -100 -17 -125 -20 -25 -3 -49 -9 -54 -14 -6 -5
-20 -9 -32 -9 -13 0 -25 -4 -28 -9 -3 -5 -21 -12 -40 -15 -19 -4 -45 -15 -57
-25 -13 -10 -39 -22 -56 -25 -18 -4 -35 -12 -39 -17 -3 -5 -21 -16 -39 -24
-19 -7 -44 -23 -57 -34 -12 -12 -29 -21 -39 -21 -9 0 -19 -7 -23 -15 -3 -8
-12 -15 -21 -15 -8 0 -15 -4 -15 -8 0 -5 -38 -37 -85 -72 -47 -35 -85 -69 -85
-74 0 -6 -22 -29 -50 -51 -27 -22 -49 -44 -50 -49 0 -5 -10 -19 -22 -32 -36
-37 -58 -64 -58 -70 0 -3 -16 -26 -35 -51 -19 -25 -35 -54 -35 -64 0 -10 -6
-22 -14 -26 -7 -4 -23 -26 -35 -48 -12 -22 -25 -47 -30 -55 -22 -40 -30 -61
-41 -99 -14 -54 -28 -59 -197 -67 -76 -4 -158 -11 -183 -15 -25 -5 -90 -16
-145 -25 -55 -8 -113 -19 -130 -24 -16 -5 -68 -16 -115 -24 -47 -8 -125 -24
-175 -36 -49 -12 -108 -24 -130 -27 -22 -3 -44 -9 -49 -14 -6 -5 -20 -9 -32
-9 -13 0 -26 -4 -29 -10 -3 -5 -24 -10 -45 -10 -21 0 -42 -4 -45 -10 -3 -5
-17 -10 -31 -10 -13 0 -32 -4 -42 -9 -39 -20 -69 -30 -102 -34 -43 -6 -118
-24 -145 -36 -11 -4 -51 -16 -90 -25 l-69 -17 -33 38 c-18 21 -41 47 -51 58
-11 11 -24 30 -31 43 -11 21 -116 128 -172 176 -31 26 -136 96 -146 96 -4 0
-19 9 -33 20 -14 11 -33 20 -43 20 -9 0 -25 4 -35 9 -9 5 -29 14 -44 20 -16 6
-38 15 -50 20 -91 38 -471 37 -494 -1 -3 -4 -25 -8 -48 -8 -35 0 -45 -4 -49
-20 -4 -14 -14 -20 -35 -20 -59 0 -207 -98 -292 -193 -14 -16 -49 -53 -77 -82
-29 -29 -53 -59 -53 -67 0 -8 -11 -29 -25 -48 -14 -19 -25 -40 -25 -47 0 -8
-7 -16 -15 -19 -8 -4 -15 -10 -15 -16 0 -8 -40 -102 -60 -139 -4 -8 -11 -46
-15 -82 -4 -37 -12 -70 -17 -73 -12 -8 0 -274 14 -291 5 -6 6 -22 3 -36 -4
-15 0 -40 8 -59 9 -18 21 -51 28 -73 6 -22 20 -52 30 -66 10 -14 25 -45 35
-69 17 -43 28 -59 72 -104 12 -13 22 -30 22 -37 0 -17 106 -129 122 -129 6 0
18 -7 27 -15 66 -60 86 -75 97 -75 8 0 14 -4 14 -10 0 -5 10 -10 23 -10 13 0
32 -8 43 -17 18 -17 40 -27 117 -55 17 -6 48 -18 67 -27 24 -11 78 -17 175
-21 168 -6 260 1 305 23 18 10 46 17 61 17 26 0 90 29 114 51 5 5 21 9 35 9
16 0 37 12 55 30 16 17 34 30 41 30 6 0 14 7 18 15 3 8 14 15 24 15 22 0 192
155 192 174 0 7 10 21 21 32 12 10 30 38 41 62 10 23 23 42 28 42 6 0 10 11
10 24 0 13 7 29 15 36 8 7 18 30 22 52 3 22 12 42 18 45 8 2 16 33 20 74 4 38
11 72 16 75 13 8 11 291 -2 316 -17 32 -2 67 36 85 19 9 35 20 35 23 0 4 18 7
40 8 23 1 59 11 82 22 23 11 54 20 70 20 16 0 36 4 46 9 31 15 88 31 115 31
14 0 28 4 31 8 3 5 31 14 63 21 32 7 78 18 103 26 25 7 68 16 95 20 28 3 73
12 100 20 28 8 97 21 155 30 58 10 128 21 155 27 50 10 200 24 352 34 77 5 82
4 94 -17 8 -16 10 -49 4 -113 -13 -149 -5 -251 31 -436 4 -19 13 -44 20 -55 8
-11 14 -31 14 -45 0 -14 11 -45 24 -70 13 -25 27 -61 31 -80 4 -19 16 -47 27
-62 10 -15 23 -40 29 -57 6 -16 19 -31 30 -34 10 -3 19 -14 19 -25 0 -28 96
-156 123 -162 14 -4 23 -15 25 -30 4 -27 148 -180 169 -180 6 0 16 -6 20 -12
10 -16 99 -88 108 -88 3 0 33 -18 65 -40 32 -22 63 -40 69 -40 5 0 16 -6 23
-14 19 -18 106 -56 131 -56 11 0 28 -7 38 -16 10 -9 32 -19 51 -24 18 -5 59
-15 91 -24 32 -9 69 -16 82 -16 13 0 26 -4 29 -9 23 -37 469 -37 492 0 3 5 25
9 49 9 24 0 47 5 50 10 3 6 17 10 30 10 13 0 27 5 30 10 3 6 21 10 39 10 19 0
39 7 46 15 7 8 20 15 30 15 16 0 63 22 222 106 25 14 52 32 58 39 7 8 21 15
31 15 10 0 23 9 29 20 6 11 15 20 21 20 17 0 139 111 139 127 0 7 8 17 17 20
21 8 93 80 93 93 0 5 9 15 20 22 11 7 20 18 20 24 0 6 7 18 16 25 24 20 104
144 104 161 0 9 6 21 14 27 8 7 18 26 21 42 4 16 11 31 16 35 18 10 56 99 63
144 4 25 14 56 23 69 8 13 19 49 24 80 4 31 13 83 19 116 16 82 6 407 -15 500
-25 112 -59 218 -78 245 -9 13 -17 31 -17 38 0 8 -9 25 -20 39 -11 14 -20 35
-20 47 0 12 -5 27 -11 33 -6 6 -16 20 -23 31 -48 86 -82 136 -107 161 -16 16
-29 33 -29 37 0 5 -11 20 -25 34 -14 14 -59 59 -100 100 -100 100 -127 125
-147 133 -10 3 -18 11 -18 16 0 8 -60 50 -121 86 -10 6 -39 23 -66 38 -26 16
-63 31 -81 34 -19 3 -36 12 -39 19 -3 8 -11 14 -19 14 -7 0 -28 8 -47 19 -18
10 -51 21 -73 24 -21 3 -57 10 -79 17 -118 35 -425 48 -560 23z"/>
<path d="M1219 10865 c-118 -26 -223 -59 -256 -81 -12 -8 -29 -14 -37 -14 -15
0 -55 -20 -121 -61 -16 -11 -49 -28 -72 -39 -24 -10 -43 -24 -43 -30 0 -5 -15
-16 -32 -24 -18 -7 -46 -26 -63 -42 -16 -15 -59 -52 -95 -82 -75 -63 -149
-141 -150 -159 0 -7 -9 -17 -20 -23 -11 -6 -20 -16 -20 -22 0 -6 -7 -18 -15
-27 -35 -37 -63 -80 -88 -133 -14 -31 -31 -59 -36 -63 -6 -3 -11 -15 -11 -25
0 -11 -11 -35 -24 -55 -30 -43 -50 -105 -66 -205 -7 -41 -20 -83 -29 -94 -14
-15 -16 -53 -16 -255 0 -227 1 -240 29 -351 16 -63 32 -124 37 -135 4 -11 13
-39 19 -61 5 -23 17 -47 25 -54 8 -7 15 -18 15 -25 0 -14 66 -143 84 -165 8
-8 16 -27 20 -42 3 -15 15 -32 26 -38 11 -6 27 -25 35 -43 32 -66 46 -87 60
-87 8 0 21 -13 30 -30 9 -16 21 -30 27 -30 6 0 27 -18 45 -40 19 -22 56 -54
81 -72 26 -17 52 -36 57 -42 44 -50 187 -136 315 -188 14 -6 39 -17 55 -24 36
-15 146 -52 195 -65 77 -21 263 -29 443 -19 203 10 202 10 234 -59 10 -20 34
-57 55 -82 21 -25 38 -50 38 -56 0 -6 7 -13 15 -17 8 -3 15 -12 15 -20 0 -8 4
-16 8 -18 13 -5 117 -131 124 -150 4 -9 17 -18 30 -20 15 -2 24 -11 26 -24 2
-12 37 -57 78 -99 40 -43 74 -80 74 -83 0 -5 88 -104 175 -197 26 -27 58 -65
72 -82 14 -18 31 -33 38 -33 7 0 21 -12 30 -27 23 -34 274 -283 286 -283 4 0
16 -14 25 -31 20 -39 12 -93 -19 -123 -22 -21 -40 -55 -70 -131 -24 -60 -42
-224 -40 -367 2 -108 6 -137 28 -200 15 -40 29 -82 32 -93 3 -11 19 -39 34
-63 16 -23 32 -54 35 -67 3 -14 17 -35 30 -47 13 -13 24 -29 24 -35 0 -7 29
-43 65 -79 36 -37 65 -70 65 -74 0 -8 48 -47 110 -89 63 -43 174 -98 235 -115
33 -10 69 -22 80 -26 33 -14 93 -22 209 -27 159 -6 328 29 451 94 17 9 42 22
56 30 15 7 32 20 39 28 7 8 18 15 26 15 7 0 53 39 102 88 90 89 172 199 172
231 0 10 7 24 14 31 19 15 48 78 71 150 10 30 21 64 26 75 12 29 29 179 29
251 0 94 -19 213 -41 264 -48 105 -63 136 -81 159 -10 13 -18 30 -18 38 0 23
-100 155 -155 204 -94 84 -114 99 -130 99 -9 0 -19 9 -22 20 -3 11 -14 20 -25
20 -11 0 -31 9 -45 20 -14 11 -36 20 -49 20 -13 0 -27 6 -31 14 -4 8 -26 19
-48 25 -22 7 -65 20 -95 29 -72 21 -370 24 -445 3 -79 -21 -139 -43 -156 -58
-8 -7 -22 -13 -31 -13 -8 0 -27 -9 -41 -20 -14 -11 -28 -20 -31 -20 -3 0 -38
-22 -78 -49 -132 -87 -142 -89 -186 -28 -17 23 -116 128 -220 233 -103 105
-222 229 -262 275 -41 46 -82 87 -91 91 -9 4 -20 16 -24 27 -7 25 -43 68 -112
139 -29 29 -53 57 -53 62 0 5 -10 20 -22 33 -65 69 -208 279 -208 305 0 22 25
47 57 56 11 4 27 13 33 21 7 8 19 15 27 15 8 0 34 14 58 30 24 17 47 30 52 30
4 0 14 9 21 20 7 11 20 20 28 20 42 0 303 244 370 346 20 30 40 57 45 60 5 3
9 14 9 25 0 11 7 22 16 26 17 6 104 176 104 203 0 9 6 24 14 35 7 11 16 38 20
60 4 21 14 51 21 65 25 49 65 307 65 424 0 127 -40 380 -66 423 -8 12 -14 30
-14 39 0 9 -6 30 -14 47 -8 18 -21 51 -29 73 -9 23 -27 58 -41 79 -14 21 -26
42 -26 47 0 5 -11 13 -25 18 -18 7 -25 17 -25 35 0 14 -5 25 -11 25 -5 0 -17
16 -25 35 -8 20 -26 45 -39 57 -14 12 -25 27 -25 35 0 7 -11 20 -25 29 -14 9
-25 21 -25 26 0 12 -55 68 -67 68 -5 0 -19 14 -31 30 -13 17 -27 30 -32 30 -6
0 -27 17 -49 38 -21 20 -54 46 -73 57 -20 11 -60 36 -90 56 -61 41 -176 99
-196 99 -7 0 -24 7 -37 16 -14 9 -39 20 -57 25 -18 4 -60 18 -93 29 -82 30
-191 43 -385 46 -142 2 -180 -1 -271 -21z"/>
<path d="M8405 8563 c-22 -2 -44 -9 -49 -14 -6 -5 -22 -9 -37 -9 -27 0 -73
-13 -124 -35 -16 -7 -40 -16 -52 -19 -11 -4 -27 -13 -33 -21 -7 -8 -22 -15
-34 -15 -44 -1 -237 -162 -316 -265 -19 -25 -40 -45 -45 -45 -6 0 -17 -16 -24
-35 -7 -19 -16 -35 -20 -35 -5 0 -14 -15 -21 -32 -7 -18 -23 -56 -36 -84 -13
-28 -24 -65 -24 -83 0 -17 -6 -34 -13 -37 -25 -9 -40 -133 -35 -281 3 -76 10
-148 16 -158 5 -11 16 -46 23 -78 7 -31 18 -62 26 -68 7 -6 13 -18 13 -26 0
-8 9 -27 20 -42 10 -15 29 -54 41 -85 11 -32 27 -60 34 -62 7 -3 27 -27 44
-55 18 -27 37 -49 42 -49 5 0 12 -8 16 -17 10 -30 35 -53 55 -53 11 0 22 -9
25 -20 3 -11 11 -20 19 -20 7 0 18 -9 24 -20 6 -11 19 -20 29 -20 10 0 26 -11
35 -24 8 -14 26 -28 38 -31 13 -4 48 -18 78 -32 30 -14 73 -33 95 -43 22 -10
74 -23 115 -30 41 -7 87 -16 101 -22 30 -11 201 -5 269 9 25 5 60 17 79 26 19
9 46 17 60 17 14 0 37 9 51 20 14 11 31 20 37 20 27 0 122 55 126 72 3 10 14
18 24 18 10 0 37 18 58 40 25 25 48 40 64 40 16 0 36 -14 58 -40 19 -22 41
-40 49 -40 8 0 18 -8 21 -17 7 -19 86 -99 122 -123 13 -8 29 -27 37 -42 8 -16
21 -28 29 -28 8 0 21 -13 29 -29 9 -16 24 -31 36 -34 11 -3 20 -12 20 -21 0
-9 7 -16 15 -16 9 0 18 -7 22 -16 3 -8 37 -48 74 -87 38 -40 90 -100 116 -134
27 -33 56 -63 65 -66 10 -3 21 -13 25 -24 4 -10 26 -43 50 -73 24 -30 55 -72
70 -93 16 -21 40 -53 56 -71 15 -19 27 -38 27 -44 0 -5 9 -12 20 -15 12 -3 20
-14 20 -26 0 -12 16 -37 35 -57 19 -19 35 -41 35 -48 0 -8 7 -16 15 -20 38
-14 4 -95 -41 -96 -10 -1 -35 -10 -54 -20 -19 -10 -46 -25 -60 -32 -14 -7 -29
-18 -33 -25 -4 -7 -16 -13 -26 -13 -18 0 -77 -40 -117 -79 -12 -12 -26 -21
-33 -21 -12 0 -121 -108 -121 -121 0 -4 -12 -14 -27 -21 -15 -7 -32 -22 -38
-33 -5 -11 -19 -30 -30 -42 -61 -66 -102 -118 -120 -152 -49 -93 -135 -270
-135 -278 0 -5 -12 -38 -26 -74 -14 -35 -34 -113 -45 -174 -10 -60 -23 -126
-29 -145 -12 -43 -13 -217 -1 -224 5 -3 12 -39 16 -81 4 -41 11 -77 16 -81 5
-3 9 -17 9 -31 0 -34 20 -104 35 -123 7 -8 15 -42 19 -75 5 -44 12 -64 26 -74
13 -9 20 -25 20 -47 0 -18 4 -35 9 -38 5 -3 30 -44 57 -91 27 -46 55 -85 62
-85 7 0 16 -8 20 -19 11 -29 73 -111 120 -158 23 -23 42 -49 42 -58 0 -8 5
-15 11 -15 5 0 34 -23 63 -50 29 -28 58 -50 64 -50 6 0 16 -8 21 -18 5 -10 22
-24 38 -32 15 -8 39 -24 53 -36 14 -12 53 -36 88 -54 34 -18 65 -36 68 -41 3
-5 31 -16 62 -25 31 -9 66 -23 77 -30 11 -7 61 -20 110 -29 50 -9 98 -21 109
-27 47 -25 336 -35 501 -18 81 9 216 41 247 60 10 5 27 10 39 10 11 0 33 8 47
19 15 10 42 22 60 26 18 4 36 13 39 21 3 8 15 14 28 14 12 0 30 9 40 20 10 11
25 20 34 20 15 0 47 23 151 108 62 51 280 273 280 286 0 6 9 19 20 31 32 31
80 108 80 127 0 9 6 21 13 25 26 17 97 158 97 194 0 14 6 31 12 37 7 7 18 36
24 65 7 28 24 97 38 152 20 74 28 136 32 240 6 127 4 150 -19 249 -14 60 -30
113 -36 119 -6 6 -11 27 -11 47 0 19 -11 57 -25 84 -14 27 -25 57 -25 67 0 9
-7 30 -15 45 -8 16 -15 37 -15 47 0 9 -4 17 -8 17 -5 0 -26 34 -47 75 -21 41
-44 76 -52 79 -7 3 -13 13 -13 22 0 9 -15 35 -33 58 -18 23 -43 57 -56 76 -35
51 -203 199 -300 266 -72 49 -154 91 -288 150 -18 8 -48 20 -65 28 -18 8 -46
17 -63 19 -16 3 -48 11 -70 17 -90 26 -180 35 -370 34 -110 0 -218 -3 -241 -7
-35 -6 -44 -3 -63 16 -36 36 -91 116 -91 131 0 8 -13 28 -30 44 -16 17 -30 36
-30 42 0 13 -38 64 -112 151 -26 31 -48 61 -48 66 0 5 -30 41 -67 79 -38 39
-88 95 -113 125 -56 67 -68 80 -387 401 -166 167 -263 272 -263 285 0 11 14
47 30 81 17 34 30 67 30 73 0 6 8 22 19 35 10 13 22 49 25 81 4 32 14 73 23
92 9 20 17 75 21 136 4 88 1 119 -23 221 -15 65 -35 137 -45 159 -10 22 -23
54 -30 70 -11 28 -22 47 -85 143 -32 49 -209 232 -224 232 -6 0 -34 18 -62 40
-28 22 -56 40 -62 40 -6 0 -18 6 -26 14 -9 7 -41 21 -71 31 -30 9 -69 23 -87
31 -17 8 -53 14 -80 14 -27 0 -53 4 -58 9 -12 11 -181 21 -240 14z"/>
<path d="M11488 7325 c-61 -15 -132 -48 -143 -65 -3 -5 -14 -10 -24 -10 -10 0
-21 -9 -24 -20 -3 -11 -13 -20 -24 -20 -10 0 -37 -24 -62 -55 -24 -30 -48 -55
-52 -55 -5 0 -9 -8 -9 -19 0 -10 -7 -24 -15 -31 -8 -7 -15 -17 -15 -23 0 -5
-12 -35 -26 -66 -24 -50 -26 -63 -22 -142 5 -88 38 -195 65 -212 7 -4 13 -15
13 -23 0 -22 102 -153 125 -160 11 -4 38 -19 60 -34 82 -56 273 -89 347 -61
13 5 41 14 63 21 22 7 57 25 77 41 20 16 42 29 48 29 6 0 15 11 20 25 5 14 15
25 22 26 20 1 88 88 95 120 3 16 12 34 19 40 8 6 14 24 14 40 0 15 7 59 15 98
14 68 12 126 -6 137 -5 3 -9 23 -9 45 0 67 -80 191 -176 273 -53 45 -79 59
-147 80 -110 33 -161 38 -229 21z"/>
<path d="M680 7323 c-25 -2 -54 -8 -65 -12 -11 -5 -33 -12 -49 -16 -17 -3 -42
-15 -57 -26 -15 -10 -31 -19 -37 -19 -5 0 -12 -9 -15 -20 -3 -11 -13 -20 -24
-20 -29 -1 -115 -111 -170 -220 -25 -49 -28 -65 -27 -150 0 -78 4 -105 24
-150 13 -30 30 -59 37 -63 7 -4 13 -20 13 -34 0 -14 14 -42 30 -62 75 -89 96
-111 106 -111 6 0 19 -9 28 -19 39 -42 125 -67 270 -78 42 -3 72 -1 79 6 6 6
21 11 34 11 31 0 69 18 128 59 58 40 142 126 151 153 3 10 10 18 15 18 14 0
59 100 59 131 0 14 5 30 11 36 26 26 -9 260 -47 310 -13 17 -24 36 -24 40 0
16 -101 123 -115 123 -8 0 -19 9 -25 20 -16 30 -126 77 -195 85 -33 4 -67 8
-75 9 -8 1 -35 1 -60 -1z"/>
<path d="M7825 6123 c-44 -8 -84 -18 -89 -24 -6 -5 -21 -9 -35 -9 -15 0 -37
-9 -51 -20 -14 -11 -32 -20 -41 -20 -9 0 -22 -7 -29 -15 -7 -8 -27 -17 -46
-21 -19 -3 -39 -15 -45 -25 -5 -11 -17 -19 -27 -19 -9 0 -23 -9 -30 -20 -7
-11 -17 -20 -23 -20 -16 0 -92 -70 -101 -92 -4 -10 -12 -18 -17 -18 -15 0
-110 -129 -130 -177 -6 -11 -15 -24 -20 -28 -6 -3 -11 -14 -11 -24 0 -10 -9
-30 -20 -44 -11 -14 -20 -30 -20 -37 0 -6 -11 -35 -24 -63 -14 -29 -27 -79
-31 -112 -3 -33 -9 -80 -13 -105 -12 -83 3 -257 29 -315 4 -11 17 -46 27 -77
10 -32 27 -67 36 -77 10 -11 15 -24 12 -29 -3 -5 3 -20 13 -33 10 -13 21 -34
25 -47 4 -12 18 -30 32 -38 13 -9 24 -25 24 -35 0 -11 15 -35 33 -55 79 -86
155 -157 187 -175 19 -11 53 -31 75 -44 80 -48 101 -59 140 -70 33 -10 41 -17
47 -46 4 -19 3 -45 -1 -59 -9 -24 -32 -101 -51 -170 -26 -92 -60 -248 -60
-273 0 -15 -6 -30 -13 -33 -8 -3 -20 -36 -27 -77 -7 -40 -16 -76 -20 -82 -4
-5 -15 -37 -24 -70 -10 -33 -21 -67 -26 -75 -4 -9 -11 -30 -14 -48 -4 -17 -12
-34 -17 -37 -5 -4 -9 -21 -9 -39 0 -19 -6 -39 -14 -45 -15 -13 -42 -99 -37
-120 1 -8 -3 -20 -11 -25 -15 -12 -34 -51 -73 -151 -26 -68 -68 -164 -85 -195
-11 -22 -80 -17 -99 7 -20 23 -100 79 -144 99 -17 8 -52 28 -77 44 -25 15 -59
29 -75 29 -17 1 -38 10 -48 21 -10 12 -29 20 -46 20 -17 0 -33 4 -36 10 -3 6
-19 10 -35 10 -16 0 -32 5 -35 10 -3 6 -21 10 -39 10 -17 0 -36 4 -41 9 -30
26 -485 46 -510 22 -10 -9 -36 -14 -145 -26 -30 -4 -65 -11 -77 -16 -56 -23
-79 -35 -85 -45 -4 -7 -29 -15 -54 -19 -54 -8 -145 -46 -191 -81 -17 -13 -38
-24 -47 -24 -8 0 -16 -10 -18 -22 -2 -12 -12 -25 -23 -28 -32 -8 -133 -89
-190 -150 -27 -30 -71 -77 -97 -104 -27 -28 -48 -55 -48 -62 0 -7 -16 -33 -35
-58 -19 -26 -35 -50 -35 -55 0 -4 -9 -16 -20 -26 -11 -10 -20 -26 -20 -35 0
-10 -7 -23 -15 -30 -8 -7 -18 -30 -22 -52 -3 -22 -12 -42 -19 -45 -6 -2 -20
-37 -30 -76 -9 -40 -27 -92 -40 -117 -17 -32 -24 -61 -24 -101 0 -31 -7 -74
-17 -95 -24 -58 -25 -399 -1 -436 9 -14 20 -54 24 -89 3 -35 10 -68 14 -74 4
-5 11 -25 15 -42 3 -18 11 -33 17 -33 6 0 9 -2 6 -6 -11 -10 58 -183 78 -196
7 -4 15 -23 18 -42 4 -19 14 -40 22 -47 9 -7 20 -25 26 -39 15 -42 72 -118 91
-123 9 -3 17 -13 17 -22 0 -10 10 -28 23 -40 12 -13 42 -47 67 -76 44 -51 179
-159 199 -159 6 0 18 -11 27 -25 9 -14 21 -25 28 -25 12 0 101 -44 120 -59 6
-5 25 -12 43 -15 17 -4 37 -14 44 -22 6 -8 20 -14 30 -14 10 0 33 -8 51 -19
18 -10 53 -22 78 -25 25 -4 68 -13 95 -22 28 -9 65 -20 84 -26 49 -15 454 -16
472 -2 8 7 32 14 54 17 89 12 201 40 216 53 8 8 22 14 29 14 8 0 48 16 89 36
42 20 100 48 129 62 30 14 56 31 59 38 3 8 29 25 58 39 29 14 65 39 80 55 16
17 34 30 41 30 7 0 14 10 16 22 2 13 12 25 24 28 24 6 121 113 135 148 5 12
15 22 23 22 7 0 19 13 26 29 6 16 22 39 36 52 13 12 24 27 24 32 0 5 9 20 20
34 11 14 20 34 20 44 0 11 9 28 19 38 20 20 61 103 76 151 4 14 13 39 20 55
22 54 35 101 35 127 0 14 9 53 19 86 40 125 37 450 -5 536 -8 16 -14 48 -14
70 0 23 -9 59 -20 81 -11 22 -20 45 -20 51 0 17 -78 181 -89 188 -5 4 -12 19
-16 35 -3 16 -15 37 -26 47 -10 9 -19 23 -19 30 0 12 -51 81 -89 120 -12 12
-21 26 -21 31 0 5 -9 18 -20 28 -11 10 -20 26 -20 37 0 10 9 35 20 55 11 21
20 45 20 55 0 9 6 21 13 25 6 4 25 37 40 73 30 68 43 95 101 223 20 44 36 87
36 97 0 10 4 22 10 25 5 3 19 38 31 78 12 40 26 76 30 81 5 6 9 19 9 31 0 11
6 29 14 40 7 11 16 37 19 58 3 21 12 51 21 67 8 16 17 44 21 62 3 18 10 42 14
53 18 45 31 93 31 116 0 14 4 29 9 35 4 5 13 29 19 54 20 81 41 174 48 213 3
21 13 41 20 44 8 3 14 14 14 24 0 21 18 103 31 135 6 19 18 23 81 27 79 7 158
19 228 37 25 6 57 14 73 17 15 3 27 9 27 14 0 5 16 9 35 9 26 0 39 6 51 25 9
14 26 25 38 25 11 0 53 24 91 53 60 45 99 82 215 203 11 12 20 26 20 32 0 6
13 30 28 54 31 46 75 127 92 168 5 14 14 32 19 40 19 31 43 169 48 275 6 122
-18 268 -58 355 -57 122 -97 195 -129 230 -19 22 -51 58 -70 81 -19 24 -48 54
-64 68 -16 14 -39 35 -50 47 -34 33 -83 64 -101 64 -9 0 -19 9 -22 20 -3 11
-13 20 -22 20 -9 0 -27 9 -41 20 -14 11 -37 20 -52 20 -15 0 -31 7 -35 15 -9
15 -97 40 -219 63 -78 15 -189 13 -289 -5z"/>
<path d="M1387 5550 c-71 -10 -138 -22 -150 -28 -12 -5 -51 -17 -86 -26 -35
-9 -73 -23 -85 -31 -11 -8 -28 -15 -38 -15 -17 0 -84 -33 -102 -51 -6 -5 -20
-9 -32 -9 -12 0 -27 -7 -34 -15 -7 -8 -24 -21 -39 -28 -58 -30 -105 -60 -145
-90 -65 -51 -230 -218 -262 -266 -16 -24 -50 -76 -77 -115 -26 -39 -52 -82
-58 -96 -7 -14 -22 -45 -34 -70 -13 -25 -26 -60 -30 -79 -4 -19 -17 -53 -30
-75 -12 -23 -25 -68 -28 -101 -3 -33 -13 -74 -21 -90 -21 -42 -40 -234 -33
-335 11 -145 65 -383 116 -505 44 -106 57 -132 72 -145 9 -8 19 -27 23 -42 3
-15 12 -33 20 -40 7 -8 21 -28 29 -45 9 -17 23 -33 32 -36 8 -4 15 -14 15 -23
0 -31 138 -183 229 -253 85 -65 150 -111 156 -111 3 0 26 -15 52 -33 27 -18
59 -38 73 -44 14 -5 45 -20 68 -32 24 -11 53 -21 63 -21 11 0 28 -5 39 -10 11
-5 29 -14 40 -20 11 -5 35 -10 55 -10 19 0 50 -9 69 -19 19 -11 60 -24 92 -30
87 -16 394 -13 484 5 41 9 92 18 113 21 20 3 40 9 43 14 3 5 16 9 29 9 13 0
27 5 30 10 3 6 16 10 28 10 12 0 37 9 55 20 18 11 40 20 50 20 19 0 105 41
110 52 2 4 22 16 45 26 23 10 48 26 56 35 7 10 19 17 26 17 17 0 47 35 38 44
-5 4 -3 7 2 5 24 -6 50 13 163 116 36 33 124 134 146 167 12 17 26 39 31 47 6
9 32 48 57 87 26 39 50 84 54 100 4 16 12 36 19 44 7 8 29 50 49 93 24 52 41
77 53 77 81 2 404 42 598 75 50 8 133 22 185 30 52 9 122 22 155 30 33 7 89
18 125 25 93 16 154 32 165 41 5 5 23 9 41 9 39 0 107 21 166 51 10 5 33 9 52
9 19 0 38 5 41 10 3 6 17 10 30 10 13 0 27 4 30 10 3 5 17 10 30 10 13 0 27 5
30 10 10 16 73 12 100 -6 14 -9 25 -24 25 -34 0 -20 53 -103 88 -138 12 -12
22 -26 22 -32 0 -5 6 -10 14 -10 8 0 21 -8 28 -18 21 -29 160 -142 174 -142 8
0 28 -9 46 -20 18 -11 43 -20 56 -20 12 0 25 -6 28 -14 3 -8 20 -18 37 -22 18
-4 41 -13 52 -20 32 -21 257 -43 350 -34 100 10 154 20 160 31 3 4 27 11 53
15 26 3 63 14 82 23 107 53 127 61 143 61 10 0 20 6 23 14 3 7 26 27 53 44 51
33 221 204 221 223 0 6 9 22 20 36 11 14 20 34 20 44 0 10 9 23 20 29 11 6 20
16 20 23 0 7 13 39 28 72 16 33 34 93 41 134 17 94 28 272 20 303 -4 13 -7 43
-8 66 -1 50 -28 150 -45 172 -7 8 -18 34 -24 56 -8 27 -19 44 -32 47 -13 3
-20 14 -21 29 0 12 -11 39 -25 58 -13 19 -35 51 -48 70 -36 55 -192 200 -214
200 -6 0 -17 8 -24 18 -20 27 -69 59 -105 66 -17 4 -37 14 -44 22 -6 8 -26 14
-43 14 -17 0 -42 9 -56 20 -15 12 -41 20 -65 20 -23 0 -46 5 -51 10 -12 12
-334 15 -343 3 -3 -4 -24 -9 -46 -11 -22 -2 -50 -7 -62 -12 -35 -15 -65 -27
-103 -41 -19 -7 -46 -20 -60 -29 -14 -10 -35 -20 -46 -24 -12 -4 -24 -16 -27
-26 -3 -12 -14 -20 -26 -20 -11 0 -25 -9 -31 -20 -6 -11 -16 -20 -22 -20 -14
0 -178 -166 -178 -180 0 -5 -8 -18 -17 -28 -17 -18 -32 -43 -87 -152 -13 -25
-29 -70 -35 -100 -20 -95 -23 -105 -40 -124 -21 -24 -27 -170 -11 -251 23
-112 23 -119 0 -148 -15 -18 -31 -27 -50 -27 -16 0 -44 -8 -62 -18 -18 -10
-44 -19 -58 -20 -13 0 -34 -5 -45 -11 -11 -5 -41 -15 -68 -21 -26 -7 -50 -17
-53 -21 -3 -5 -18 -9 -33 -9 -25 0 -68 -11 -111 -28 -13 -5 -90 -20 -200 -38
-19 -4 -39 -10 -45 -14 -5 -4 -37 -11 -70 -15 -33 -4 -78 -13 -100 -21 -22 -7
-60 -14 -85 -14 -25 0 -79 -7 -120 -16 -41 -9 -109 -18 -150 -21 -41 -3 -79
-9 -84 -14 -6 -5 -31 -9 -56 -9 -25 0 -51 -5 -56 -10 -6 -6 -41 -10 -80 -8
l-69 3 -6 245 c-6 250 -19 353 -55 436 -19 44 -25 60 -48 126 -10 25 -24 52
-31 58 -8 7 -12 16 -9 21 3 5 0 9 -5 9 -6 0 -11 7 -11 14 0 8 -13 34 -29 58
-16 24 -41 67 -57 96 -15 28 -31 52 -36 52 -4 0 -15 14 -23 30 -28 54 -216
234 -311 298 -51 34 -104 64 -119 68 -15 4 -29 13 -32 20 -3 8 -11 14 -17 14
-7 0 -48 18 -91 40 -43 22 -86 40 -95 40 -9 0 -20 4 -26 8 -13 13 -152 49
-272 72 -124 24 -230 24 -405 0z"/>
<path d="M8738 2376 c-37 -6 -70 -14 -74 -18 -4 -5 -17 -8 -29 -8 -11 0 -36
-13 -55 -30 -19 -16 -40 -29 -46 -30 -7 0 -14 -7 -18 -15 -3 -8 -11 -15 -19
-15 -25 0 -137 -137 -137 -169 0 -7 -9 -24 -20 -38 -11 -14 -20 -40 -20 -57 0
-18 -4 -36 -10 -42 -20 -20 -24 -102 -6 -128 9 -14 16 -43 16 -64 0 -25 9 -52
25 -76 14 -20 25 -43 25 -50 0 -7 29 -47 64 -88 49 -57 79 -82 132 -110 97
-50 241 -72 318 -49 17 5 54 14 81 21 28 6 59 20 71 31 11 10 24 19 28 19 11
0 31 22 39 43 3 9 14 17 24 17 33 1 97 98 139 210 76 199 -41 478 -246 589
-33 17 -68 31 -79 31 -11 0 -22 4 -25 9 -3 4 -22 11 -43 14 -21 3 -45 7 -53
10 -8 2 -45 -1 -82 -7z"/>
<path d="M3460 2373 c-25 -2 -49 -8 -54 -14 -6 -5 -18 -9 -28 -9 -10 0 -26 -4
-36 -9 -9 -5 -37 -18 -62 -30 -49 -24 -180 -144 -180 -165 0 -7 -9 -25 -20
-39 -11 -14 -20 -32 -20 -40 0 -9 -7 -22 -15 -30 -20 -21 -34 -90 -35 -171 0
-79 32 -184 67 -222 13 -14 23 -31 23 -38 0 -16 123 -139 153 -153 12 -6 42
-20 67 -31 81 -38 234 -54 307 -32 18 6 50 15 71 21 20 6 54 24 74 40 20 16
42 29 47 29 6 0 11 7 11 15 0 9 9 19 19 23 25 9 101 102 101 124 0 9 6 21 14
25 19 11 56 158 56 221 0 32 -5 54 -15 62 -8 7 -15 25 -15 41 0 58 -104 231
-133 221 -5 -1 -11 6 -14 16 -2 11 -16 25 -29 31 -13 6 -24 15 -24 20 0 12
-123 71 -147 71 -11 0 -24 5 -29 10 -13 13 -92 19 -154 13z"/>
</g>
</svg>
